<?xml version="1.0" encoding="UTF-8" standalone="no"?>
<svg
   class="svg-snoweb svg-theme-light"
   x="0"
   y="0"
   width="512"
   height="512"
   viewBox="0 0 512 512"
   preserveAspectRatio="xMidYMid"
   version="1.1"
   id="svg4"
   sodipodi:docname="number-2-blue-ink.svg"
   inkscape:version="1.3.2 (091e20e, 2023-11-25, custom)"
   inkscape:export-filename="number-2-blue-2-exp.svg"
   inkscape:export-xdpi="96"
   inkscape:export-ydpi="96"
   xmlns:inkscape="http://www.inkscape.org/namespaces/inkscape"
   xmlns:sodipodi="http://sodipodi.sourceforge.net/DTD/sodipodi-0.dtd"
   xmlns="http://www.w3.org/2000/svg"
   xmlns:svg="http://www.w3.org/2000/svg">
  <sodipodi:namedview
     id="namedview4"
     pagecolor="#ffffff"
     bordercolor="#000000"
     borderopacity="0.25"
     inkscape:showpageshadow="2"
     inkscape:pageopacity="0.0"
     inkscape:pagecheckerboard="0"
     inkscape:deskcolor="#d1d1d1"
     inkscape:zoom="0.815"
     inkscape:cx="364.41718"
     inkscape:cy="287.11656"
     inkscape:window-width="1440"
     inkscape:window-height="890"
     inkscape:window-x="-6"
     inkscape:window-y="-6"
     inkscape:window-maximized="1"
     inkscape:current-layer="svg4" />
  <defs
     id="defs1">
    <style
       id="style1">
        
            
            
            
        

        .svg-fill-primary {
            fill: #00fff1;
        }

        .svg-fill-secondary {
            fill: #FFFFFF;
        }

        .svg-fill-tertiary {
            fill: #FFFFFF;
        }

        .svg-stroke-primary {
            stroke: #00fff1;
        }

        .svg-stroke-secondary {
            stroke: #FFFFFF;
        }

        .svg-stroke-tertiary {
            stroke: #FFFFFF;
        }
    </style>
  </defs>
  <clipPath
     id="clip-path-202406-0510-4057-1659dd6c-065e-4f6f-94bb-7a7eac91609c">
    <rect
       x="0"
       y="95"
       width="100"
       height="5"
       id="rect1" />
  </clipPath>
  <g
     transform="matrix(8.0948064,0,0,8.0948064,-148.72818,-148.32748)"
     id="g4">
    <path
       d="M 68.575,75.267 C 67.935,74.63 67.152,74.31 66.225,74.31 H 42.302 l 14.44,-16.008 c 2.492,-2.667 4.552,-5.22 6.177,-7.656 1.623,-2.436 2.827,-4.799 3.61,-7.09 0.783,-2.291 1.175,-4.538 1.175,-6.743 0,-3.421 -0.74,-6.481 -2.219,-9.179 -1.479,-2.697 -3.626,-4.798 -6.438,-6.307 -2.813,-1.508 -6.191,-2.262 -10.134,-2.262 -3.191,0 -6.294,0.783 -9.31,2.349 -3.016,1.566 -5.424,3.799 -7.221,6.699 -0.522,0.639 -0.972,1.248 -1.349,1.827 -0.378,0.581 -0.565,1.189 -0.565,1.827 0,0.813 0.376,1.522 1.131,2.131 0.753,0.609 1.536,0.914 2.349,0.914 0.522,0 1.029,-0.13 1.522,-0.392 0.492,-0.261 0.942,-0.709 1.349,-1.349 1.218,-2.551 2.884,-4.437 5.002,-5.655 2.117,-1.218 4.335,-1.827 6.655,-1.827 2.436,0 4.552,0.479 6.351,1.436 1.797,0.957 3.204,2.306 4.219,4.045 1.015,1.74 1.522,3.8 1.522,6.177 0,2.494 -0.754,5.061 -2.262,7.699 -1.509,2.64 -3.684,5.468 -6.524,8.483 L 32.12,74.918 c -0.696,0.755 -1.044,1.596 -1.044,2.523 0,1.044 0.333,1.87 1,2.479 0.666,0.608 1.522,0.913 2.566,0.913 h 31.581 c 0.927,0 1.71,-0.305 2.35,-0.913 0.637,-0.609 0.956,-1.378 0.956,-2.306 0,-0.928 -0.319,-1.71 -0.956,-2.35 z"
       class="svg-fill-primary"
       id="path3" />
  </g>
</svg>
