<?xml version="1.0" encoding="UTF-8" standalone="no"?>
<svg
   class="svg-snoweb svg-theme-light"
   x="0"
   y="0"
   width="512"
   height="512"
   viewBox="0 0 512 512"
   preserveAspectRatio="xMidYMid"
   version="1.1"
   id="svg4"
   sodipodi:docname="number-3-blue-ink.svg"
   inkscape:export-filename="number-3-blue-2-exp.svg"
   inkscape:export-xdpi="96"
   inkscape:export-ydpi="96"
   inkscape:version="1.3.2 (091e20e, 2023-11-25, custom)"
   xmlns:inkscape="http://www.inkscape.org/namespaces/inkscape"
   xmlns:sodipodi="http://sodipodi.sourceforge.net/DTD/sodipodi-0.dtd"
   xmlns="http://www.w3.org/2000/svg"
   xmlns:svg="http://www.w3.org/2000/svg">
  <sodipodi:namedview
     id="namedview4"
     pagecolor="#ffffff"
     bordercolor="#000000"
     borderopacity="0.25"
     inkscape:showpageshadow="2"
     inkscape:pageopacity="0.0"
     inkscape:pagecheckerboard="0"
     inkscape:deskcolor="#d1d1d1"
     inkscape:zoom="6.52"
     inkscape:cx="50"
     inkscape:cy="50"
     inkscape:window-width="1440"
     inkscape:window-height="890"
     inkscape:window-x="-6"
     inkscape:window-y="-6"
     inkscape:window-maximized="1"
     inkscape:current-layer="svg4" />
  <defs
     id="defs1">
    <style
       id="style1">
        
            
            
            
        

        .svg-fill-primary {
            fill: #00fff1;
        }

        .svg-fill-secondary {
            fill: #FFFFFF;
        }

        .svg-fill-tertiary {
            fill: #FFFFFF;
        }

        .svg-stroke-primary {
            stroke: #00fff1;
        }

        .svg-stroke-secondary {
            stroke: #FFFFFF;
        }

        .svg-stroke-tertiary {
            stroke: #FFFFFF;
        }
    </style>
  </defs>
  <clipPath
     id="clip-path-202406-0510-4128-f7383881-ed7b-40b4-a0d3-c044e86e1876">
    <rect
       x="0"
       y="95"
       width="100"
       height="5"
       id="rect1" />
  </clipPath>
  <g
     transform="matrix(8.0942822,0,0,8.0942822,-148.71816,-155.35952)"
     id="g4">
    <path
       d="m 66.355,51.255 c -1.624,-2.841 -3.8,-5.046 -6.525,-6.612 -2.727,-1.566 -5.713,-2.349 -8.96,-2.349 -0.06,0 -0.129,0.005 -0.193,0.007 L 65.224,26.112 c 0.405,-0.405 0.725,-0.826 0.957,-1.261 0.231,-0.435 0.348,-0.914 0.348,-1.436 0,-0.87 -0.291,-1.667 -0.87,-2.393 -0.58,-0.725 -1.509,-1.087 -2.783,-1.087 H 34.514 c -0.929,0 -1.711,0.304 -2.349,0.914 -0.639,0.609 -0.957,1.378 -0.957,2.305 0,0.927 0.318,1.711 0.957,2.349 0.638,0.639 1.42,0.957 2.349,0.957 H 56.329 L 40.777,43.599 c -0.406,0.465 -0.696,0.914 -0.87,1.348 -0.174,0.435 -0.261,0.914 -0.261,1.436 0,0.929 0.261,1.711 0.783,2.349 0.522,0.639 1.247,0.957 2.175,0.957 0.522,0 1.087,-0.087 1.697,-0.261 0.609,-0.174 1.261,-0.318 1.957,-0.435 0.696,-0.116 1.449,-0.174 2.262,-0.174 2.204,0 4.307,0.45 6.307,1.349 2.001,0.9 3.654,2.293 4.959,4.177 1.305,1.885 1.957,4.307 1.957,7.265 0,2.727 -0.652,5.133 -1.957,7.221 -1.305,2.088 -3.002,3.697 -5.09,4.828 -2.087,1.131 -4.379,1.696 -6.872,1.696 -2.031,0 -3.828,-0.317 -5.394,-0.957 -1.566,-0.637 -2.93,-1.479 -4.089,-2.522 -0.522,-0.464 -1,-0.769 -1.435,-0.913 -0.435,-0.145 -0.827,-0.218 -1.175,-0.218 -0.987,0 -1.813,0.406 -2.479,1.218 -0.667,0.812 -1,1.653 -1,2.523 0,0.521 0.13,1.044 0.392,1.565 0.261,0.522 0.768,0.987 1.522,1.393 1.623,1.392 3.552,2.45 5.786,3.175 2.232,0.725 4.509,1.088 6.83,1.088 4.176,0 7.93,-0.842 11.266,-2.523 3.335,-1.682 5.96,-4.059 7.874,-7.134 1.914,-3.073 2.871,-6.699 2.871,-10.875 0,-3.77 -0.813,-7.075 -2.437,-9.918 z"
       class="svg-fill-primary"
       id="path3" />
  </g>
</svg>
