
<svg xmlns="http://www.w3.org/2000/svg"
     class="svg-snoweb svg-theme-light"
     x="0"
     y="0"
     width="100%"
     height="100%"
     viewBox="0 0 100 100"
     preserveAspectRatio="xMidYMid meet"
>
<defs>
    <style>
        
            
            
            
        

        .svg-fill-primary {
            fill: #00fff1;
        }

        .svg-fill-secondary {
            fill: #FFFFFF;
        }

        .svg-fill-tertiary {
            fill: #FFFFFF;
        }

        .svg-stroke-primary {
            stroke: #00fff1;
        }

        .svg-stroke-secondary {
            stroke: #FFFFFF;
        }

        .svg-stroke-tertiary {
            stroke: #FFFFFF;
        }
    </style>
</defs>
    

<clipPath id="clip-path-202406-0510-4228-d5c8e08b-670b-4249-9ddf-1073d85b54cf">
    <rect x="0" y="95" width="100" height="5"></rect>
</clipPath>
<g clip-path="url(#clip-path-202406-0510-4228-d5c8e08b-670b-4249-9ddf-1073d85b54cf)">
    <rect opacity="0.25" filter="url(#svg-filter-glass)"
            class="svg-fill-tertiary"
            x="0"
            y="95"
            width="100"
            height="5">
    </rect>
    <g transform="translate(0, 50)">
        <circle opacity="0.25" filter="url(#svg-filter-glass)"
                class="svg-fill-secondary svg-builder-circle"
                cx="50"
                cy="50"
                r="50">
        </circle>
    </g>
</g>

    <g transform="translate(20.00, 20.00) scale(0.60, 0.60)">
        
    <path d="M70.75,57.258c-.64-.638-1.422-.957-2.35-.957h-5.133V23.415c0-.986-.319-1.812-.957-2.479-.639-.666-1.45-1-2.436-1-.522,0-1.044,.102-1.566,.304-.522,.204-.987,.566-1.392,1.088L29.164,56.997c-.581,.639-.87,1.392-.87,2.262,0,.929,.362,1.74,1.088,2.437,.724,.695,1.522,1.044,2.392,1.044h24.534v14.528c0,.987,.333,1.827,1.001,2.523,.666,.696,1.492,1.044,2.479,1.044s1.812-.348,2.479-1.044c.666-.696,1-1.536,1-2.523v-14.528h5.133c.928,0,1.71-.305,2.35-.914,.637-.608,.957-1.349,.957-2.218,0-.928-.32-1.711-.957-2.35Zm-33.043-.957l18.601-24.283v24.283h-18.601Z"
      class="svg-fill-primary"/>


    </g>
</svg>