
<svg xmlns="http://www.w3.org/2000/svg"
     class="svg-snoweb svg-theme-light"
     x="0"
     y="0"
     width="100%"
     height="100%"
     viewBox="0 0 100 100"
     preserveAspectRatio="xMidYMid meet"
>
<defs>
    <style>
        
            
            
            
        

        .svg-fill-primary {
            fill: #00FFF1;
        }

        .svg-fill-secondary {
            fill: #FFFFFF;
        }

        .svg-fill-tertiary {
            fill: #FFFFFF;
        }

        .svg-stroke-primary {
            stroke: #00FFF1;
        }

        .svg-stroke-secondary {
            stroke: #FFFFFF;
        }

        .svg-stroke-tertiary {
            stroke: #FFFFFF;
        }
    </style>
</defs>
    

<clipPath id="clip-path-202406-0510-3916-5820edbf-0da8-41c4-8ad7-1b386d769564">
    <rect x="0" y="95" width="100" height="5"></rect>
</clipPath>
<g clip-path="url(#clip-path-202406-0510-3916-5820edbf-0da8-41c4-8ad7-1b386d769564)">
    <rect opacity="0.25" filter="url(#svg-filter-glass)"
            class="svg-fill-tertiary"
            x="0"
            y="95"
            width="100"
            height="5">
    </rect>
    <g transform="translate(0, 50)">
        <circle opacity="0.25" filter="url(#svg-filter-glass)"
                class="svg-fill-secondary svg-builder-circle"
                cx="50"
                cy="50"
                r="50">
        </circle>
    </g>
</g>

    <g transform="translate(20.00, 20.00) scale(0.60, 0.60)">
        
    <path d="M57.31,23.416v53.85c0,.99-.35,1.83-1.05,2.53-.69,.69-1.59,1.04-2.69,1.04-1.11,0-2-.35-2.7-1.04-.7-.7-1.04-1.54-1.04-2.53V29.616l-9.05,5.46c-.52,.29-1.1,.43-1.74,.43-.99,0-1.83-.39-2.52-1.17-.7-.79-1.05-1.58-1.05-2.39,0-1.28,.61-2.3,1.83-3.05l14.18-8.44c.69-.4,1.56-.58,2.61-.52,.98,0,1.77,.33,2.35,1,.58,.67,.87,1.49,.87,2.48Z"
      class="svg-fill-primary"/>


    </g>
</svg>