<?xml version="1.0" encoding="UTF-8" standalone="no"?>
<svg
   class="svg-snoweb svg-theme-light"
   x="0"
   y="0"
   width="512"
   height="512"
   viewBox="0 0 512 512"
   preserveAspectRatio="xMidYMid"
   version="1.1"
   id="svg4"
   sodipodi:docname="number-4-blue.svg"
   inkscape:export-filename="number-4-blue-ink-2.svg"
   inkscape:export-xdpi="96"
   inkscape:export-ydpi="96"
   inkscape:version="1.3.2 (091e20e, 2023-11-25, custom)"
   xmlns:inkscape="http://www.inkscape.org/namespaces/inkscape"
   xmlns:sodipodi="http://sodipodi.sourceforge.net/DTD/sodipodi-0.dtd"
   xmlns="http://www.w3.org/2000/svg"
   xmlns:svg="http://www.w3.org/2000/svg">
  <sodipodi:namedview
     id="namedview4"
     pagecolor="#ffffff"
     bordercolor="#000000"
     borderopacity="0.25"
     inkscape:showpageshadow="2"
     inkscape:pageopacity="0.0"
     inkscape:pagecheckerboard="0"
     inkscape:deskcolor="#d1d1d1"
     inkscape:zoom="1.1525841"
     inkscape:cx="229.91816"
     inkscape:cy="254.21139"
     inkscape:window-width="1440"
     inkscape:window-height="890"
     inkscape:window-x="-6"
     inkscape:window-y="-6"
     inkscape:window-maximized="1"
     inkscape:current-layer="svg4" />
  <defs
     id="defs1">
    <style
       id="style1">
        
            
            
            
        

        .svg-fill-primary {
            fill: #00fff1;
        }

        .svg-fill-secondary {
            fill: #FFFFFF;
        }

        .svg-fill-tertiary {
            fill: #FFFFFF;
        }

        .svg-stroke-primary {
            stroke: #00fff1;
        }

        .svg-stroke-secondary {
            stroke: #FFFFFF;
        }

        .svg-stroke-tertiary {
            stroke: #FFFFFF;
        }
    </style>
  </defs>
  <clipPath
     id="clip-path-202406-0510-4228-d5c8e08b-670b-4249-9ddf-1073d85b54cf">
    <rect
       x="0"
       y="95"
       width="100"
       height="5"
       id="rect1" />
  </clipPath>
  <g
     transform="matrix(8.2103154,0,0,8.2103154,-154.51988,-157.68085)"
     id="g4">
    <path
       d="M 70.75,57.258 C 70.11,56.62 69.328,56.301 68.4,56.301 H 63.267 V 23.415 c 0,-0.986 -0.319,-1.812 -0.957,-2.479 -0.639,-0.666 -1.45,-1 -2.436,-1 -0.522,0 -1.044,0.102 -1.566,0.304 -0.522,0.204 -0.987,0.566 -1.392,1.088 L 29.164,56.997 c -0.581,0.639 -0.87,1.392 -0.87,2.262 0,0.929 0.362,1.74 1.088,2.437 0.724,0.695 1.522,1.044 2.392,1.044 h 24.534 v 14.528 c 0,0.987 0.333,1.827 1.001,2.523 0.666,0.696 1.492,1.044 2.479,1.044 0.987,0 1.812,-0.348 2.479,-1.044 0.666,-0.696 1,-1.536 1,-2.523 V 62.74 H 68.4 c 0.928,0 1.71,-0.305 2.35,-0.914 0.637,-0.608 0.957,-1.349 0.957,-2.218 0,-0.928 -0.32,-1.711 -0.957,-2.35 z M 37.707,56.301 56.308,32.018 v 24.283 z"
       class="svg-fill-primary"
       id="path3" />
  </g>
</svg>
